<svg class="{{ with .class }}{{ . }} {{ end }}icon icon-category" width="16" height="16" version="1.0" xmlns="http://www.w3.org/2000/svg" xmlns:cc="http://creativecommons.org/ns#" xmlns:dc="http://purl.org/dc/elements/1.1/" xmlns:rdf="http://www.w3.org/1999/02/22-rdf-syntax-ns#">
 <metadata>
  <rdf:RDF>
   <cc:Work rdf:about="">
    <dc:format>image/svg+xml</dc:format>
    <dc:type rdf:resource="http://purl.org/dc/dcmitype/StillImage"/>
    <dc:title/>
   </cc:Work>
  </rdf:RDF>
 </metadata>
 <path d="m1.9506 15.942c-0.58591-0.07531-0.58718-0.07683-0.54529-0.65001 0.047693-0.65259 0.18256-1.6697 0.24945-1.8813 0.069559-0.21999 0.29234-0.40491 0.77626-0.64437 0.21327-0.10553 0.38777-0.22115 0.38777-0.25694 0-0.03852-0.092226-0.07174-0.22606-0.08142l-0.22606-0.01636v-0.74467l0.63829-0.01501c0.59967-0.0141 0.64167-0.02215 0.69399-0.13298 0.030653-0.06489 0.12946-0.26159 0.21958-0.43712 0.090113-0.17553 0.26172-0.5226 0.38135-0.77126s0.30111-0.59575 0.4033-0.77127c0.10218-0.17553 0.20274-0.35505 0.22346-0.39893 0.02072-0.04388 0.099472-0.17593 0.175-0.29343 0.15143-0.23559 0.15007-0.23341 0.54479-0.8768 0.48815-0.79567 0.78579-1.167 2.0464-2.5532 0.80006-0.87967 1.423-1.4957 1.9609-1.9391 0.20478-0.16881 0.66664-0.58238 1.0263-0.91907 0.3597-0.33668 0.66599-0.60016 0.68066-0.58551 0.01464 0.014643-0.05915 0.20288-0.16399 0.41831-0.10484 0.21543-0.18308 0.43973-0.17386 0.49845 0.01087 0.06924 0.12468-0.10941 0.32383-0.50832 0.28908-0.57905 0.3286-0.63119 0.67446-0.89007 0.20208-0.15123 0.58983-0.39135 0.86166-0.53362 0.55749-0.29175 0.95192-0.52054 1.3543-0.78553 0.47-0.30949 0.48767-0.22867 0.09993 0.45723-0.12403 0.21941-0.28514 0.53059-0.358 0.69147-0.07287 0.16091-0.31962 0.63963-0.54835 1.0638-0.50579 0.93807-0.63607 1.1809-0.92726 1.7287-0.23139 0.43531-0.38327 0.63536-0.55102 0.7258-0.05216 0.028114-0.42317 0.1658-0.82446 0.30597-0.4013 0.14017-0.82972 0.30612-0.95206 0.36877-0.39457 0.20205-0.34259 0.30936 0.05806 0.11986 0.3573-0.169 1.5657-0.5624 1.6054-0.52267 0.05717 0.057173-0.43308 0.69013-1.7403 2.247-0.19652 0.23404-0.54649 0.65293-0.77773 0.93087-0.43711 0.52541-0.69499 0.743-0.88553 0.74707-0.061499 0.00133-0.18362 0.03528-0.27138 0.075467l-0.15957 0.073067 0.25266 0.00433c0.13896 0.0024 0.25266 0.024413 0.25266 0.04898 0 0.040673-0.28073 0.27931-0.86979 0.73933-0.50786 0.39664-1.3909 0.83973-2.3629 1.1857-0.15433 0.05493-0.42905 0.17876-0.61049 0.27516l-0.3299 0.17527 0.37114 0.02659 0.37114 0.0266v0.74467l-0.19946 0.01651c-0.2027 0.01678-0.26198 0.10912-0.13298 0.20718 0.036566 0.0278 0.18617 0.09391 0.33244 0.1469 0.16517 0.05984 0.35666 0.18929 0.50532 0.34161 0.22894 0.23459 0.24342 0.26839 0.33266 0.7772 0.051319 0.29255 0.10878 0.83633 0.12769 1.2084l0.034386 0.67647-0.13863 0.05271c-0.39333 0.14955-3.088 0.21938-3.9902 0.10342z" stroke-width=".10891"/>
</svg>
