<svg class="{{ with .class }}{{ . }} {{ end }}icon icon-time" width="16" height="16" version="1.1" viewBox="0 0 16 16" xmlns="http://www.w3.org/2000/svg" xmlns:cc="http://creativecommons.org/ns#" xmlns:dc="http://purl.org/dc/elements/1.1/" xmlns:rdf="http://www.w3.org/1999/02/22-rdf-syntax-ns#">
 <metadata>
  <rdf:RDF>
   <cc:Work rdf:about="">
    <dc:format>image/svg+xml</dc:format>
    <dc:type rdf:resource="http://purl.org/dc/dcmitype/StillImage"/>
    <dc:title/>
   </cc:Work>
  </rdf:RDF>
 </metadata>
 <path d="m2.4152 15.663c0.02017-0.2411 0.06238-0.30566 0.22483-0.34383 0.19431-0.04565 0.19926-0.06395 0.17396-0.64316-0.03793-0.8684 0.16485-1.7316 0.63482-2.7022 0.57478-1.1871 1.2146-1.8207 2.469-2.4447 1.1904-0.59223 1.4028-0.79391 1.4426-1.3696 0.055639-0.80489-0.1527-1.0588-1.3845-1.6872-1.4585-0.74402-2.3408-1.7524-2.8798-3.2916-0.20923-0.59745-0.24788-0.83063-0.26187-1.5799-0.01591-0.85202-0.02222-0.88037-0.20533-0.92316-0.15023-0.035108-0.194-0.10494-0.21374-0.34099l-0.02483-0.29684h11.219l-0.02483 0.29684c-0.01957 0.23394-0.06397 0.30599-0.20952 0.34-0.17722 0.041415-0.18565 0.078728-0.20857 0.92316-0.04189 1.5435-0.56473 2.7393-1.6789 3.84-0.53901 0.53248-0.7913 0.71097-1.5017 1.0625-0.5405 0.26742-0.94602 0.52741-1.1049 0.7084-0.13808 0.15726-0.27016 0.26682-0.29352 0.24347-0.07017-0.070171 0.20072-0.90283 0.3518-1.0814 0.07729-0.091336 0.38462-0.25641 0.68294-0.36684 1.7915-0.66313 2.8501-2.1803 2.7619-3.9583-0.01876-0.37832-0.07817-0.76886-0.13202-0.86786l-0.09791-0.18h-8.3087l-0.09372 0.17512c-0.05155 0.096315-0.11157 0.48819-0.13339 0.87084-0.03189 0.55934-0.0068 0.80403 0.12814 1.2482 0.39842 1.3117 1.3966 2.3057 2.7673 2.7557 0.46694 0.15329 0.55573 0.21482 0.69012 0.47824 0.24077 0.47195 0.41301 1.6603 0.38258 2.6396-0.01469 0.47266-0.04762 0.8802-0.07318 0.90565-0.02557 0.02545-0.32487 0.11748-0.66512 0.2045-1.5738 0.40251-2.7685 1.5326-3.1358 2.9663-0.16578 0.64711-0.12637 1.7209 0.0744 2.0273l0.13663 0.20853 4.0582-0.0012c2.232-6.4e-4 4.0991-0.02767 4.1493-0.06 0.14888-0.09606 0.26798-0.65966 0.26846-1.2703 8.4e-4 -1.0709-0.51922-2.1955-1.3453-2.9091-0.47802-0.41296-1.322-0.83936-1.913-0.9665-0.25372-0.05459-0.50114-0.12943-0.54984-0.16631-0.18494-0.14009-0.21312-1.9865-0.03032-1.9865 0.03237 0 0.07885 0.099955 0.10328 0.22212 0.07922 0.3961 0.37638 0.65694 1.2443 1.0922 1.3791 0.69164 2.0749 1.3761 2.6893 2.6456 0.41006 0.84722 0.61558 1.6943 0.60087 2.4766-0.01455 0.77365-0.02024 0.74921 0.18112 0.77781 0.14459 0.02053 0.18488 0.08459 0.20483 0.32556l0.02483 0.3h-11.219zm1.6676-0.7379c-0.04555-0.08511-0.08282-0.42764-0.08282-0.76118 0-0.59804 0.0036-0.60862 0.25923-0.76408 0.14257-0.08671 0.52957-0.21396 0.86-0.28278 0.33043-0.06883 0.75697-0.16493 0.94788-0.21357 0.49784-0.12683 1.1315-0.73103 1.4044-1.3391 0.21906-0.48812 0.44457-1.3859 0.44712-1.7799 0.0014-0.21217 0.15876-0.41295 0.16418-0.20944 0.0015 0.057597 0.05178 0.37472 0.11165 0.70472 0.30351 1.6728 0.97782 2.5095 2.1893 2.7165 0.75112 0.12836 1.3485 0.3257 1.5477 0.51132 0.15308 0.14261 0.16548 0.21877 0.12702 0.77993-0.02344 0.34204-0.06631 0.66021-0.09527 0.70706-0.03605 0.05833-1.2729 0.08517-3.9251 0.08517-3.7467 0-3.8752-5e-3 -3.9553-0.15474zm3.8984-6.5253c-0.02647-0.088-0.07264-0.37472-0.10258-0.63715-0.075943-0.66546-0.3266-1.4325-0.55798-1.7075-0.11452-0.1361-0.39438-0.30458-0.67728-0.40773-0.57161-0.20842-0.72351-0.40754-0.48945-0.64161 0.27016-0.27015 0.77631-0.36611 1.9261-0.36515 0.94027 7.92e-4 1.1293 0.023552 1.4609 0.17592 0.20952 0.096256 0.40289 0.23219 0.4297 0.30207 0.07288 0.18991-0.19559 0.43501-0.58347 0.53267-0.62388 0.15709-0.97855 0.68391-1.1502 1.7084-0.1977 1.1801-0.20485 1.2092-0.25576 1.04z" stroke-width=".08"/>
</svg>
