<svg class="{{ with .class }}{{ . }} {{ end }} icon" width="24" height="24" version="1.1" viewBox="0 0 24 24" xmlns="http://www.w3.org/2000/svg" xmlns:cc="http://creativecommons.org/ns#" xmlns:dc="http://purl.org/dc/elements/1.1/" xmlns:rdf="http://www.w3.org/1999/02/22-rdf-syntax-ns#">
 <metadata>
  <rdf:RDF>
   <cc:Work rdf:about="">
    <dc:format>image/svg+xml</dc:format>
    <dc:type rdf:resource="http://purl.org/dc/dcmitype/StillImage"/>
    <dc:title/>
   </cc:Work>
  </rdf:RDF>
 </metadata>
 <path d="m8.2263 23.099c-0.06444-0.0168-0.10007-0.05835-0.07918-0.09233 0.05145-0.08371 0.62847-0.07906 0.62847 0.0051 0 0.03677-0.05739 0.06685-0.12753 0.06685-0.07014 0-0.16737 0.01146-0.21607 0.02548-0.0487 0.01401-0.14126 0.01174-0.2057-0.0051zm1.1476-0.15412c0-0.03677 0.07479-0.06685 0.1662-0.06685 0.09141 0 0.1662 0.03008 0.1662 0.06685s-0.07479 0.06685-0.1662 0.06685c-0.09141 0-0.1662-0.03008-0.1662-0.06685zm-2.6814-0.16139c-0.08181-0.08876-0.19178-0.2467-0.24438-0.35098-0.0526-0.10427-0.14885-0.26141-0.21388-0.3492-0.06503-0.08779-0.16201-0.30783-0.2155-0.48898-0.0535-0.18115-0.1731-0.41999-0.26579-0.53076-0.12547-0.14995-0.16852-0.27787-0.16852-0.50079 0-0.21319-0.0665-0.42541-0.23094-0.737-0.28189-0.53415-0.342-0.8248-0.24083-1.1644 0.06504-0.2183 0.13187-0.28569 0.42155-0.4251 0.18934-0.09112 0.35714-0.15271 0.3729-0.13687 0.01575 0.01584 0.03187 0.11972 0.0358 0.23084 0.0039 0.11112 0.04064 0.2021 0.08156 0.20219 0.04092 6.7e-5 0.093 0.11297 0.11572 0.25085 0.0386 0.23421 0.02123 0.26883-0.26404 0.52641-0.25903 0.23389-0.29486 0.29544-0.23617 0.40572 0.03805 0.0715 0.06685 0.21818 0.064 0.32595-0.01316 0.4966 0.1978 0.99202 0.39073 0.91757 0.08903-0.03436 0.10065-0.01731 0.05843 0.08571-0.07293 0.17796-0.0685 0.20597 0.11015 0.69684 0.08698 0.239 0.26899 0.57974 0.40446 0.75721 0.32414 0.42464 0.34188 0.62886 0.02474 0.28475zm4.0609 0.11711c0.04571-0.01855 0.1205-0.01855 0.1662 0 0.04571 0.01854 0.0083 0.03372-0.0831 0.03372-0.09141 0-0.12881-0.01517-0.0831-0.03372zm0.66762-0.14427c-0.15481-0.06196-1.2054-0.97497-1.5715-1.3658-0.16364-0.17465-0.35025-0.31755-0.41469-0.31755-0.18775 0-0.48558-0.29594-0.64986-0.64575-0.09249-0.19694-0.26702-0.41158-0.44588-0.54835-0.20419-0.15614-0.31791-0.30534-0.37258-0.48885-0.05581-0.18731-0.15606-0.31636-0.34477-0.44379-0.14634-0.09882-0.35794-0.27264-0.47023-0.38626-0.11228-0.11362-0.25651-0.22549-0.3205-0.2486-0.06399-0.02311-0.11634-0.07819-0.11634-0.12241 0-0.04422-0.05236-0.13924-0.11634-0.21115-0.111-0.12474-0.11063-0.1342 0.0079-0.20582 0.29554-0.17859 0.38003-0.29244 0.42741-0.57588 0.03751-0.22443 0.08332-0.30605 0.18141-0.32319 0.20643-0.03607 0.29743-0.21049 0.29743-0.57009 0-0.34382-0.07441-0.50847-0.59358-1.3134-0.47614-0.73825-0.64213-1.3835-0.47178-1.8341 0.09233-0.24418 0.24756-0.21212 0.38352 0.07921 0.08739 0.18726 0.16322 0.25605 0.29969 0.27185 0.24041 0.02784 0.23245 0.13871-0.01675 0.23329-0.16131 0.06123-0.19938 0.11444-0.19912 0.27832 3.06e-4 0.18883 0.32429 0.70387 0.32969 0.52411 0.0013-0.04379-0.02753-0.09821-0.06409-0.12094-0.03656-0.02272-0.06648-0.11475-0.06648-0.2045 0-0.23062 0.17176-0.20554 0.25597 0.03737 0.0749 0.21604 0.1431 0.24095 0.35199 0.12853 0.1274-0.06856 0.13279-0.05489 0.11197 0.28412-0.02168 0.35299-0.02026 0.35596 0.15954 0.33484 0.1337-0.01571 0.24298 0.03881 0.41551 0.20731 0.12876 0.12574 0.2341 0.27477 0.2341 0.33117 0 0.13318 0.28338 0.31848 0.48706 0.31848 0.1341 0 0.1543-0.02646 0.12755-0.16713-0.04675-0.24595 0.19425-0.22062 0.53764 0.05651 0.34534 0.2787 0.5098 0.34426 0.5098 0.20323 0-0.05706 0.0374-0.09113 0.0831-0.07571 0.04571 0.01542 0.08321 0.08373 0.08334 0.1518 3.32e-4 0.17407 0.42866 0.28845 0.51296 0.13699 0.08528-0.15324 0.3558-0.12854 0.49583 0.04529 0.1705 0.21165 0.59505 0.22938 0.7544 0.03149 0.09924-0.12324 0.13164-0.13116 0.22342-0.05456 0.05904 0.04927 0.10842 0.16863 0.10973 0.26524l0.0024 0.17566 0.14969-0.18384c0.19299-0.23703 0.24442-0.23179 0.24442 0.02487 0 0.20384 0.0035 0.20619 0.14958 0.10083 0.37796-0.27258 0.39392-0.27286 0.34416-0.0061-0.04297 0.23033-0.0376 0.24104 0.08714 0.1739 0.07312-0.03935 0.15025-0.05413 0.17142-0.03284 0.02116 0.02128 0.12045-0.02614 0.22063-0.10538 0.16359-0.1294 0.1883-0.13302 0.24252-0.0356 0.03321 0.05966 0.04536 0.1662 0.02702 0.23674-0.04564 0.1755-0.026 0.16645 0.30034-0.13832 0.15699-0.14662 0.30936-0.26695 0.3386-0.26741 0.12465-2e-3 0.49926-0.45315 0.54233-0.6532 0.02579-0.1198 0.1043-0.24872 0.17446-0.28648 0.08567-0.0461 0.12756-0.14014 0.12756-0.28636 0-0.1712 0.06554-0.28139 0.30676-0.51575 0.33668-0.32711 0.49102-0.61975 0.49102-0.93099 0-0.22796-0.0933-0.25663-0.31864-0.09791-0.08183 0.05764-0.21564 0.09524-0.29734 0.08357-0.15884-0.0227-0.15816-0.01708-0.092-0.7566 0.03778-0.42227 0.09713-0.57088 0.28894-0.72352 0.21293-0.16944 0.21514-0.5478 0.0035-0.60482-0.35973-0.09694-0.47098-0.04801-0.85147 0.37448l-0.37519 0.41661-0.27836-0.18524c-0.1531-0.10188-0.35203-0.2134-0.44207-0.24783-0.09005-0.03443-0.16372-0.09342-0.16372-0.1311 0-0.03768-0.02992-0.06851-0.06648-0.06851s-0.06648 0.10162-0.06648 0.22583c0 0.15759-0.04361 0.25494-0.14431 0.32218-0.15269 0.10194-0.12106 0.25422 0.05281 0.25422 0.05505 0 0.17476 0.08923 0.26601 0.19828 0.09854 0.11776 0.25908 0.21586 0.39534 0.24156 0.12618 0.0238 0.24093 0.06243 0.255 0.08584 0.01407 0.02341-0.0182 0.15241-0.07171 0.28667-0.08642 0.21681-0.12839 0.24751-0.37535 0.27453-0.22098 0.02418-0.35115-0.01062-0.63416-0.16952-0.28303-0.15891-0.45356-0.20449-0.83102-0.22212-0.26121-0.0122-0.69049-0.04156-0.95396-0.06525-0.4322-0.03885-0.50822-0.02667-0.7774 0.12462-0.36134 0.20308-1.0884 0.28281-1.044 0.11448 0.01456-0.05515 0.02263-0.22931 0.01795-0.38701-0.0052-0.17353 0.02376-0.29813 0.07325-0.3156 0.08357-0.0295 0.75286-0.09721 1.1884-0.12024 0.21997-0.01163 0.5222-0.19476 0.5222-0.31642 0-0.02689-0.13416-0.06913-0.29814-0.09386-0.32842-0.04952-0.49896-0.22093-0.50066-0.5032-5.32e-4 -0.09293-0.03049-0.21409-0.06651-0.26925-0.05368-0.08219-0.12578-0.03533-0.39982 0.25988-0.18388 0.19809-0.35114 0.34325-0.37169 0.32259-0.0904-0.0909 0.07061-0.31844 0.35864-0.50684 0.28466-0.1862 0.32771-0.25054 0.48508-0.72494 0.11997-0.36166 0.20914-0.52771 0.29208-0.54389 0.10185-0.01986 0.11332 0.0096 0.07814 0.20056-0.03615 0.19622-0.01945 0.23402 0.1354 0.30637 0.20217 0.09445 0.35397 0.01489 0.35397-0.18552 0-0.20873 0.07652-0.33154 0.20656-0.33154 0.08911 0 0.12585 0.04764 0.12585 0.16318 0 0.08975-0.03037 0.18206-0.06749 0.20513-0.03712 0.02307-0.10843 0.14048-0.15848 0.26092-0.08015 0.19291-0.1154 0.21537-0.29604 0.18871-0.16344-0.02412-0.24706 0.01198-0.41206 0.17789-0.35885 0.36085-0.09996 0.53198 0.40946 0.27064 0.26302-0.13493 0.30938-0.13911 0.6451-0.05812 0.33028 0.07967 0.38264 0.07583 0.6026-0.04421 0.21226-0.11584 0.24003-0.16055 0.23368-0.37622-0.0047-0.15932-0.06852-0.31801-0.18282-0.45462-0.19503-0.23307-0.22982-0.53911-0.07589-0.66757 0.17856-0.14902 0.10288-1.0358-0.14686-1.7207-0.12104-0.33197-0.06246-0.45059 0.2574-0.52123 0.11059-0.024425 0.26036-0.11298 0.33283-0.19679 0.09685-0.112 0.24053-0.16638 0.54226-0.2052 0.56308-0.072449 1.4728-0.034424 1.8371 0.076793 0.16604 0.050684 0.30938 0.092478 0.31852 0.092877 0.0091 4.011e-4 0.01662-0.072527 0.01662-0.16206 0-0.23518-0.118-0.51427-0.29862-0.7063-0.08775-0.093294-0.16665-0.27049-0.17859-0.40111-0.01649-0.18033-0.05426-0.23869-0.16473-0.25452-0.33311-0.047733-0.2237-0.56231 0.2073-0.975 0.14147-0.13546 0.24646-0.32418 0.30157-0.54207 0.0465-0.18384 0.12917-0.40672 0.18373-0.49527 0.13572-0.22032 0.13092-0.91844-0.0081-1.176-0.05952-0.11031-0.10841-0.27201-0.10863-0.35933-3.32e-4 -0.14077 0.02218-0.15423 0.19875-0.11872 0.2839 0.057096 0.53214 0.23795 0.53214 0.38768 0 0.12996 0.25872 0.67063 0.41391 0.86496 0.04659 0.05834 0.15042 0.14127 0.23074 0.18429 0.12047 0.064522 0.15691 0.05867 0.20817-0.033427 0.05672-0.10192 0.09005-0.097599 0.38284 0.049697 0.23157 0.1165 0.33814 0.21708 0.38345 0.3619 0.03451 0.11031 0.12624 0.27742 0.20384 0.37136 0.14983 0.18137 0.2831 0.56509 0.49793 1.4337 0.35251 1.4252 0.35746 2.1201 0.01981 2.7785-0.11729 0.22868-0.21325 0.47011-0.21325 0.5365 0 0.066394-0.12345 0.35548-0.27434 0.64242-0.40686 0.77372-0.58249 1.4877-0.61953 2.5186-0.017 0.47321-0.06405 1.0298-0.10454 1.2368-0.23006 1.176-0.28502 1.3525-0.52836 1.6968-0.13644 0.19301-0.26938 0.44119-0.29544 0.55149-0.02605 0.11031-0.12034 0.31272-0.20953 0.44982-0.18824 0.28935-0.1988 0.35739-0.06356 0.40958 0.05423 0.02093 0.08665 0.07679 0.07203 0.12414-0.01461 0.04735-0.04338 0.16396-0.06393 0.25914-0.02594 0.12012-0.11868 0.20992-0.30323 0.2936-0.37166 0.16853-0.41023 0.34376-0.12744 0.57897 0.12334 0.10258 0.38879 0.27569 0.5899 0.38468 0.42115 0.22824 0.58746 0.46899 0.66592 0.96404 0.03022 0.19063 0.09112 0.56679 0.13535 0.8359 0.05911 0.35967 0.06079 0.50902 0.0063 0.56379-0.11059 0.1112-0.17179 0.0084-0.18156-0.30495-0.0098-0.31439-0.1228-0.89946-0.186-0.96301-0.08525-0.08572-0.39445 0.1551-0.4895 0.38125-0.30166 0.71776-0.36083 0.81188-0.62033 0.98687-0.2413 0.16271-0.48413 0.35974-1.2272 0.99568-0.32446 0.27769-0.98379 0.49586-1.8884 0.62488-0.26087 0.0372-0.62181 0.14281-0.8021 0.23467-0.31901 0.16256-0.64723 0.2045-0.87788 0.11219zm0.65309-5.3059c0.02137-0.03478 0.02382-0.07835 0.0054-0.09684-0.03989-0.04012-0.3123 0.12215-0.3123 0.18603 0 0.06279 0.25988-0.01274 0.30686-0.08919zm0.52416-0.12119c0.0226-0.03677 0.01117-0.06685-0.02539-0.06685s-0.08497 0.03008-0.10757 0.06685-0.01117 0.06685 0.02539 0.06685c0.03657 0 0.08497-0.03008 0.10757-0.06685zm-1.4663-0.06082c0.10104-0.1644-0.19532-0.41042-0.36635-0.30413-0.04657 0.02894-0.01915 0.10145 0.07748 0.20487 0.1605 0.1718 0.22968 0.19557 0.28887 0.09926zm-0.49491-0.80111c0-0.08202-0.1873-0.14785-0.22875-0.08041-0.01846 0.03004-0.01443 0.07385 0.0089 0.09736 0.06336 0.06371 0.2198 0.05165 0.2198-0.01695zm6.0499-3.3537c0-0.07571-0.02992-0.11906-0.06648-0.09633-0.03657 0.02273-0.06648 0.08467-0.06648 0.13765 0 0.05298 0.02992 0.09633 0.06648 0.09633s0.06648-0.06194 0.06648-0.13765zm0.12097-0.8491c0.01733-0.12217-0.01058-0.14974-0.15167-0.14974-0.19592 0-0.30359 0.18236-0.16181 0.27407 0.14721 0.09523 0.29039 0.03844 0.31348-0.12434zm-1.9285-0.54445c0.01836-0.252 0.04624-0.29478 0.24717-0.3792 0.12456-0.05234 0.2798-0.09529 0.34496-0.09544 0.06516-1.34e-4 0.27716-0.12126 0.4711-0.26912 0.19394-0.14786 0.37564-0.25453 0.40377-0.23705 0.02813 0.01748 0.08928 0.14798 0.13589 0.29 0.0753 0.22944 0.10534 0.25518 0.2695 0.23095 0.16319-0.02408 0.18959-0.06273 0.22616-0.33105 0.06673-0.48959 0.04774-1.0542-0.03837-1.1408-0.15466-0.15553-0.23431-0.078553-0.27484 0.26563-0.0224 0.19022-0.06673 0.372-0.09851 0.40396-0.05782 0.05814-0.21193-0.8586-0.21177-1.2597 1.99e-4 -0.49942-0.50368-0.45146-0.79802 0.075958-0.18835 0.3375-0.35664 0.4984-0.43689 0.41771-0.02459-0.024723 0.03842-0.14399 0.14002-0.26505l0.18472-0.22009-0.25955-0.034484c-0.24877-0.033052-0.25334-0.038009-0.10997-0.11934 0.2245-0.12736 0.1814-0.20381-0.1278-0.22673-0.25276-0.018733-0.4633-0.18769-0.23389-0.18769 0.14098 0 0.18827-0.17633 0.07307-0.27247-0.14978-0.12499-0.62552 0.033429-0.62552 0.2083 0 0.073761-0.04502 0.13102-0.10302 0.13102-0.20464 0-0.47961 0.19939-0.58607 0.42499-0.13652 0.28929-0.14441 1.0772-0.01394 1.3912 0.05211 0.12542 0.16578 0.30207 0.25259 0.39256 0.08681 0.0905 0.27003 0.33734 0.40715 0.54853 0.2349 0.3618 0.52574 0.6034 0.67487 0.56062 0.03656-0.01049 0.07579-0.1469 0.08717-0.30312zm-0.46529-2.5925c0.04799-0.019312 0.10533-0.016937 0.12742 0.00527 0.02209 0.022214-0.01717 0.038015-0.08726 0.035112-0.07745-0.00321-0.0932-0.019049-0.04017-0.040389zm3.1832 2.604c-0.01686-0.06504-0.03176-0.02801-0.03311 0.08229-0.0014 0.11031 0.01244 0.16352 0.03065 0.11826 0.01821-0.04526 0.01932-0.13551 0.0025-0.20056zm-0.56324-4.0411c-0.05984-0.06017-0.10278-0.0192-0.1835 0.17507-0.05796 0.13949-0.08557 0.30276-0.06134 0.36281 0.03342 0.082866 0.07766 0.04066 0.1835-0.17507 0.10682-0.21773 0.12118-0.30264 0.06134-0.36281zm-1.9427 0.2443c0-0.080575-0.355-0.16224-0.51985-0.11958l-0.17821 0.046109 0.1662 0.047614c0.20253 0.058019 0.53186 0.074033 0.53186 0.025862zm1.5107-2.1145c0.10987-0.22638 0.13557-0.60401 0.04335-0.63702-0.08922-0.031937-0.29087 0.44481-0.29087 0.68767 0 0.21135 0.13364 0.18401 0.24752-0.050645zm1.3363-0.039844c0.0327-0.064345 0.06345-0.24485 0.06834-0.40111 0.0067-0.2139-0.01616-0.28412-0.09244-0.28412-0.1172 0-0.13846 0.052582-0.19599 0.48468-0.03444 0.25868-0.02347 0.31755 0.05918 0.31755 0.0558 0 0.12821-0.052646 0.16092-0.11699zm-1.8238-0.68659c0.1095-0.27518 0.14235-0.67614 0.06201-0.75692-0.05695-0.057265-0.19273 0.33567-0.25099 0.72632-0.05603 0.37575 0.04512 0.39212 0.18897 0.030592zm0.67504-1.4182c-0.07714-0.043408-0.10165-0.11322-0.07594-0.21623 0.02088-0.083672-0.01101-0.25087-0.07089-0.37155-0.10206-0.20573-0.11446-0.21172-0.19858-0.096033-0.12386 0.17034-0.11292 0.27704 0.05355 0.52206 0.19369 0.28508 0.34576 0.40691 0.37979 0.30425 0.01429-0.043111-0.02528-0.10723-0.08793-0.14249zm0.80647 17.838c-0.04156-0.10891 0.01428-0.18608 0.0973-0.13448 0.07552 0.04693 0.0738 0.22822-0.0022 0.22822-0.03265 0-0.07547-0.04218-0.09514-0.09374zm-3.4355-5.3754c0-0.15289 0.17283-0.39609 0.2362-0.33236 0.05832 0.05864-0.09646 0.45329-0.17778 0.45329-0.03213 0-0.05842-0.05442-0.05842-0.12093zm-2.626-0.28019c0.0226-0.03677 0.05428-0.06685 0.07041-0.06685 0.01612 0 0.02932 0.03008 0.02932 0.06685s-0.03168 0.06685-0.07041 0.06685c-0.03872 0-0.05191-0.03008-0.02932-0.06685zm1.572-1.0914c-0.06284-0.07614-0.04561-0.11669 0.08658-0.20378 0.22833-0.15044 0.27502-0.13727 0.26612 0.07511-0.0088 0.20986-0.22162 0.2875-0.3527 0.12867zm2.1178-0.17092c0-0.03677 0.02992-0.08544 0.06648-0.10817 0.03657-0.02272 0.06648-0.01123 0.06648 0.02554s-0.02992 0.08544-0.06648 0.10817c-0.03656 0.02273-0.06648 0.01123-0.06648-0.02553zm-6.1662-0.14929c-0.23913-0.15399-0.29973-0.30945-0.07309-0.18748 0.07864 0.04232 0.26347 0.07527 0.41074 0.07323 0.14727-2e-3 0.32974 0.03023 0.4055 0.07173 0.13516 0.07403 0.13462 0.07633-0.02847 0.12302-0.29434 0.08425-0.49373 0.06179-0.71468-0.0805zm-1.3428-0.33644c-0.07473-0.12326-0.13599-0.26687-0.13613-0.31913-1.33e-4 -0.05226-0.0504-0.15074-0.1117-0.21885-0.08688-0.09654-0.09381-0.14158-0.03141-0.20432 0.0624-0.06274 0.10528-0.0623 0.19455 2e-3 0.06298 0.04536 0.21047 0.13238 0.32775 0.19336 0.13739 0.07145 0.2507 0.20505 0.31857 0.37562 0.05794 0.1456 0.09661 0.27333 0.08593 0.28385-0.01067 0.01051-0.13017 0.03992-0.26555 0.06535-0.22841 0.0429-0.25594 0.03008-0.38202-0.17788zm0.83124-0.74921c-0.10604-0.10663-0.15654-0.23454-0.15654-0.39653 0-0.30816 0.14669-0.36952 0.29201-0.12215 0.11198 0.19062 0.50372 0.38404 0.62506 0.30863 0.09461-0.0588 0.08342 0.19036-0.01291 0.28722-0.14102 0.1418-0.57433 0.09707-0.74762-0.07718zm-1.4133-0.3607c-0.16367-0.25864-0.22445-0.29183-0.45924-0.25082-0.24041 0.042-0.31488-0.02663-0.45155-0.41614-0.0523-0.14906-0.20478-0.43714-0.33884-0.64018-0.14842-0.22478-0.25771-0.48258-0.27942-0.65915-0.01962-0.15949-0.17831-0.59082-0.35264-0.9585-0.17434-0.36769-0.36521-0.83192-0.42416-1.0316-0.13538-0.45862-0.13911-1.3808-0.0081-2.007 0.05449-0.26048 0.09481-0.69936 0.08959-0.97529-0.0081-0.42932 0.01116-0.52378 0.13361-0.65486 0.0787-0.084242 0.1431-0.20282 0.1431-0.2635 0-0.13288 0.2379-0.27386 0.37371-0.22145 0.07703 0.029724 0.08188 0.066736 0.02319 0.17702-0.05355 0.10061-0.05435 0.19674-0.0029 0.34523 0.03924 0.11319 0.07134 0.27788 0.07134 0.36599 0 0.088106 0.07479 0.2354 0.1662 0.32732 0.09141 0.091922 0.1662 0.20873 0.1662 0.25958 0 0.09555 0.85766 1 0.90404 0.9534 0.014368-0.014429-0.11661-0.23456-0.29104-0.48918-0.50264-0.7337-0.62249-1.6198-0.13731-1.0151 0.2302 0.28688 0.96498 0.92034 1.0675 0.92034 0.14656 0-0.01976-0.44015-0.24663-0.65271-0.12808-0.11999-0.23287-0.24885-0.23287-0.28635 0-0.0375-0.10428-0.17304-0.23174-0.30121-0.12746-0.12817-0.25125-0.31519-0.2751-0.4156-0.023846-0.10041-0.072811-0.22017-0.10881-0.26613-0.077959-0.099529-0.3151-0.11211-0.3151-0.016713 0 0.15727-0.10856 0.044728-0.2202-0.22826l-0.12047-0.29461 0.17273-0.34276c0.09661-0.19171 0.24521-0.37597 0.3372-0.41812 0.14049-0.064369 0.1886-0.052556 0.33001 0.081036 0.11177 0.10559 0.16555 0.2283 0.16555 0.37776 0 0.26168 0.11469 0.75994 0.25422 1.1044 0.09258 0.22854 0.48588 0.53627 0.57318 0.44848 0.01917-0.01928-0.02452-0.15218-0.0971-0.29533-0.07258-0.14315-0.13196-0.32912-0.13196-0.41327 0-0.084148-0.03144-0.153-0.06987-0.153-0.18389 0-0.37865-0.97961-0.2254-1.1337 0.10592-0.10651 0.5612 0.061349 0.5612 0.20691 0 0.079548-0.03383 0.10734-0.09972 0.08191-0.13228-0.051042-0.12614-0.00999 0.04111 0.27506 0.09692 0.16519 0.12866 0.30121 0.1018 0.43627-0.0373 0.18754-0.03033 0.1945 0.15693 0.15684 0.16827-0.033842 0.20556-0.014037 0.26385 0.14015 0.1034 0.27348 0.08564 0.32353-0.09832 0.2771-0.14266-0.036004-0.1662-0.019246-0.1662 0.11827 0 0.08812 0.04255 0.19573 0.09456 0.23914 0.05201 0.043405 0.12402 0.16387 0.16001 0.26771 0.0579 0.16703 0.05119 0.18504-0.05827 0.15626-0.10899-0.02866-0.11945-0.00185-0.08786 0.22516 0.05825 0.41864 0.077 0.45288 0.19433 0.35496 0.0715-0.059673 0.12265-0.063908 0.17204-0.014246 0.07892 0.079358 0.08305 0.16773 0.0422 0.90305-0.03134 0.56419 0.04546 0.67047 0.25364 0.35098 0.0599-0.091922 0.14521-0.16713 0.18958-0.16713 0.04437 0 0.21419-0.08893 0.37738-0.19762 0.40194-0.26772 1.1153-0.38995 1.6169-0.27706 0.46465 0.10456 1.4333 0.57633 1.4333 0.69808 0 0.051974-0.04488 0.13195-0.09972 0.17772-0.05485 0.045773-0.10013 0.14723-0.10063 0.22546-0.0023 0.35541-0.06402 0.42564-0.41549 0.47252-0.40875 0.054524-0.89637-0.07125-0.95133-0.24538-0.06666-0.21117-0.3731-0.3231-0.65035-0.23754-0.13327 0.04113-0.24231 0.1138-0.24231 0.16149 0 0.10612 0.20854 0.22512 0.39452 0.22512 0.25602 0 0.13906 0.11826-0.16184 0.16364-0.31165 0.046996-0.35326 0.089494-0.21939 0.22411 0.11772 0.11838-0.33318 0.10179-0.54515-0.020056-0.09141-0.052547-0.33959-0.096607-0.5515-0.097909-0.32438-0.00199-0.41258-0.02981-0.55788-0.17592-0.14708-0.1479-0.19596-0.16284-0.33072-0.1011-0.08697 0.039848-0.1856 0.14511-0.21918 0.23391-0.03358 0.088802-0.09326 0.18148-0.13264 0.20595-0.10705 0.066527-0.26902 0.49334-0.26902 0.70889 0 0.27216 0.13451 0.5298 0.2766 0.5298 0.14099 0 0.14808 0.02718 0.05347 0.20495-0.07768 0.14596-0.23768 0.17195-0.28158 0.04574-0.0207-0.0595-0.07225-0.04505-0.17897 0.05014-0.11401 0.10169-0.23573 0.13162-0.50833 0.12502-0.19713-0.0048-0.35842 0.01675-0.35842 0.04784s0.08725 0.14628 0.19389 0.25597c0.22472 0.23117 0.31362 0.45805 0.2174 0.55481-0.09592 0.09645-0.18852 0.01824-0.23295-0.19673-0.04197-0.2031-0.51075-0.62818-0.51075-0.46314 0 0.05252 0.04469 0.18166 0.09931 0.28697s0.0995 0.24519 0.09972 0.31083c2.26e-4 0.06564 0.04914 0.19413 0.1087 0.28554 0.08988 0.13793 0.1442 0.15942 0.31947 0.12635 0.18078-0.0341 0.22229-0.01532 0.28834 0.13045 0.07399 0.16328 0.18395 0.21465 0.54705 0.25554 0.09696 0.01092 0.19355 0.08139 0.23183 0.16913 0.03609 0.08273 0.11171 0.15042 0.16803 0.15042 0.12616 0 0.39792 0.18522 0.39792 0.2712 0 0.03468-0.10471 0.06306-0.23269 0.06306-0.15379 0-0.23269 0.03136-0.23269 0.09248 0 0.07889-0.18379 0.17092-0.3475 0.17402-0.02658 5.35e-4 -0.10068-0.08182-0.16467-0.18293zm-0.88395-5.127c0-0.052983-0.02785-0.11364-0.06189-0.1348-0.07904-0.049122-0.15853 0.076063-0.10432 0.16428 0.06113 0.099468 0.1662 0.080831 0.1662-0.029481zm3.8061-0.036459c0.10055-5.02e-4 0.18282-0.030996 0.18282-0.067765 0-0.10134-0.34387-0.075492-0.53186 0.039985l-0.1662 0.1021 0.1662-0.036703c0.09141-0.020187 0.24848-0.037114 0.34903-0.037616zm-3.4072-1.4048c-0.05273-0.03277-0.11083-0.044541-0.12911-0.026156-0.01828 0.018384 0.0099 0.060238 0.06263 0.093009 0.05273 0.03277 0.11083 0.044541 0.12911 0.026156 0.01828-0.018384-0.0099-0.060238-0.06263-0.093009zm2.5667 5.9778c-0.06667-0.1747-0.04677-0.22852 0.08447-0.22852 0.06865 0 0.16267-0.04585 0.20892-0.1019 0.146-0.1769 0.14283-0.05853-0.0052 0.19375-0.15546 0.26496-0.2264 0.2986-0.28819 0.13666zm-0.78126-0.17283c-0.04767-0.08578-0.09329-0.22575-0.10139-0.31104-0.02884-0.30385-0.1609-0.59446-0.35522-0.78167-0.21047-0.20277-0.36139-0.18358-0.17604 0.02238 0.06072 0.06747 0.1104 0.181 0.1104 0.2523 0 0.0713 0.07587 0.24191 0.1686 0.37914 0.09273 0.13723 0.14005 0.2495 0.10516 0.2495-0.15577 0-0.27376-0.09174-0.27376-0.21285 0-0.17204-0.37337-0.54668-0.4972-0.49889-0.07679 0.02963-0.08303 4e-3 -0.03196-0.13103 0.08978-0.23746 0.2823-0.4897 0.37566-0.49217 0.14506-0.0039 0.15045-0.11357 0.01838-0.37406-0.17088-0.33705-0.12622-0.4831 0.13592-0.44442 0.19363 0.028577 0.19866 0.022219 0.19866-0.25125 0-0.35632 0.13974-0.33418 0.2303 0.036487 0.03525 0.14428 0.09819 0.29242 0.13986 0.32919 0.16241 0.14331 0.29466 0.40596 0.29466 0.58522 0 0.23448 0.14906 0.29901 0.36382 0.15751 0.08984-0.0592 0.19077-0.10763 0.22428-0.10763 0.12382 0 0.3937 0.44574 0.44126 0.7288l0.04907 0.29209-0.24132-0.18509c-0.20716-0.15889-0.28246-0.17942-0.53196-0.14504-0.24817 0.03421-0.31648 0.01597-0.46753-0.12479-0.31803-0.29639-0.37524-0.20129-0.1964 0.32649 0.07439 0.21955 0.16479 0.34486 0.29917 0.41474 0.18466 0.09602 0.28092 0.34058 0.10946 0.27813-0.04571-0.01665-0.13308 0.01342-0.19416 0.06683-0.09879 0.08638-0.12062 0.07988-0.19772-0.05886zm-1.5507-0.29367c-0.18909-0.17622-0.21675-0.37364-0.06957-0.49647 0.08182-0.06828 0.11014-0.05185 0.1662 0.09644 0.03717 0.09831 0.06758 0.20436 0.06758 0.23567 0 0.03131 0.07523 0.11208 0.16718 0.17949l0.16718 0.12257-0.16519 0.0095c-0.09177 0.0053-0.23994-0.06015-0.33338-0.14723zm2.2695-0.07399c-0.02438-0.02451-0.04432-0.07565-0.04432-0.11365 0-0.04189 0.03096-0.03794 0.07867 0.01003 0.04327 0.04351 0.06321 0.09465 0.04432 0.11365-0.01889 0.019-0.05429 0.01449-0.07867-0.01003zm0.28809-0.02228c0-0.03677 0.02992-0.06685 0.06648-0.06685s0.06648 0.03008 0.06648 0.06685-0.02992 0.06685-0.06648 0.06685-0.06648-0.03008-0.06648-0.06685zm2.2707-2.1762c0.01263-0.065533 0.06322-0.13263 0.11242-0.1491 0.05722-0.019159 0.08117 0.012986 0.06648 0.089199-0.01263 0.065533-0.06322 0.13263-0.11242 0.1491-0.05722 0.019159-0.08118-0.012986-0.06648-0.089199zm2.0901-3.698c-0.17536-0.038327-0.18293-0.050802-0.08189-0.135 0.06123-0.051021 0.22297-0.11475 0.35942-0.14162 0.13645-0.026871 0.33036-0.071117 0.43092-0.098326 0.16483-0.0446 0.18283-0.032534 0.18283 0.12256 0 0.27983-0.33356 0.37428-0.89128 0.25239zm-2.6323-0.77761c0-0.055153 0.02453-0.10028 0.05452-0.10028 0.02998 0 0.181-0.10887 0.33559-0.24193 0.15459-0.13306 0.2982-0.22471 0.31912-0.20367 0.06942 0.069803-0.04383 0.373-0.19071 0.5106-0.17203 0.16116-0.51852 0.18474-0.51852 0.035277zm0.70342 0.042142c-0.02273-0.036988 0.03692-0.12177 0.13257-0.1884 0.18606-0.12962 0.24846-0.19103 0.56466-0.55569 0.1734-0.19998 0.19646-0.21097 0.15868-0.075656-0.07639 0.27366 0.10481 0.13217 0.42182-0.32937 0.30504-0.44411 0.31951-0.33749 0.03015 0.22208-0.18095 0.34992-0.66471 0.81764-0.89844 0.86864-0.08188 0.017867-0.1982 0.053448-0.25849 0.079067-0.06029 0.025619-0.12822 0.016318-0.15095-0.020671zm-0.80314-0.54354c-0.05565-0.090542 0.01944-0.20056 0.13689-0.20056 0.05269 0 0.0958 0.060167 0.0958 0.1337 0 0.1384-0.16039 0.18449-0.23269 0.066852zm-2.2128-0.38764c-0.20987-0.19714-0.27093-0.37118-0.15542-0.44297 0.07014-0.04359 0.42477 0.47619 0.39211 0.57472-0.01259 0.037992-0.1191-0.021294-0.23669-0.13175zm-0.85008-0.44309c-0.060571-0.24268-0.24341-0.37519-0.74193-0.53772-0.48293-0.15744-0.55955-0.25822-0.36932-0.48567 0.0653-0.078078 0.1991-0.24538 0.29732-0.37177 0.18261-0.23499 0.45299-0.36799 0.45299-0.22282 0 0.12097-0.19653 0.3763-0.28964 0.3763-0.04546 0-0.11716 0.034692-0.15932 0.077094-0.12707 0.12778 0.02653 0.31249 0.32764 0.39402 0.38416 0.10402 0.65318 0.38971 0.65318 0.69366 0 0.27168-0.10996 0.32116-0.17092 0.076915zm3.5889-0.18876c-0.06927-0.13805-0.07717-0.1868-0.02165-0.1337 0.04806 0.045961 0.1861 0.083565 0.30676 0.083565 0.17507 0 0.21939 0.027011 0.21939 0.1337 0 0.10374-0.04432 0.1337-0.19774 0.1337-0.1564 0-0.22053-0.045417-0.30676-0.21727zm-1.2469-0.37352c-0.11572-0.12146-0.16545-0.22965-0.13829-0.30084 0.06283-0.16463 0.14078-0.13518 0.19237 0.07268 0.0251 0.10111 0.09281 0.23649 0.15048 0.30084 0.17622 0.19663-0.01153 0.12992-0.20456-0.07268zm2.0851 0.091009c-0.05244-0.063535-0.05748-0.10189-0.0134-0.10189 0.08035 0 0.17402 0.12683 0.12792 0.17319-0.01673 0.016827-0.06827-0.015258-0.11452-0.0713zm-1.2313-0.16875c-0.0226-0.036769-0.0094-0.066852 0.02932-0.066852s0.07041 0.030083 0.07041 0.066852-0.01319 0.066852-0.02932 0.066852-0.04781-0.030084-0.07041-0.066852zm5.9945 0.022284c-0.0765-0.076923-0.04841-0.15599 0.0554-0.15599 0.05485 0 0.09972 0.045125 0.09972 0.10028 0 0.10439-0.07863 0.13263-0.15512 0.05571zm-8.0598-0.16308c-0.025-0.040672 0.05096-0.16853 0.16881-0.28412l0.21426-0.21017-0.14084 0.28412c-0.15139 0.30541-0.17245 0.32369-0.24222 0.21017zm7.8603-0.30488c-0.02438-0.024513-0.04432-0.075655-0.04432-0.11365 0-0.04189 0.03096-0.037943 0.07867 0.010028 0.04327 0.04351 0.06321 0.094652 0.04432 0.11365s-0.05429 0.014485-0.07867-0.010028zm-8.5193-0.22165-0.24947-0.19936-0.1628 0.12877c-0.13162 0.10411-0.35376 0.12578-0.35376 0.034508 0-0.07173 0.66916-0.49205 0.84331-0.52971 0.36212-0.07831 0.60264 0.28799 0.4175 0.63584-0.09474 0.178-0.20368 0.16257-0.49478-0.070052zm2.3035-0.11135c0.01288-0.067262 0.07815-0.13289 0.14504-0.14585 0.08783-0.017008 0.11511 0.010425 0.0982 0.098743-0.01288 0.067262-0.07815 0.13289-0.14504 0.14585-0.08783 0.017008-0.11511-0.010426-0.0982-0.098743zm2.8308-0.16474c-0.12188-0.06916-0.16303-0.32678-0.0522-0.32678 0.07695 0 0.21908 0.25039 0.18948 0.33381-0.01159 0.032651-0.07288 0.029513-0.13728-0.00703zm-3.9611-0.24227c0.02066-0.24112 0.01312-0.25083-0.22517-0.28978-0.1356-0.022164-0.27008-0.019107-0.29884 0.00679-0.08638 0.07778-0.45155 0.12652-0.53931 0.071982-0.05659-0.035172-0.02901-0.075085 0.08936-0.12932 0.09417-0.043146 0.21011-0.078448 0.25764-0.078448 0.04753 0 0.15541-0.060167 0.23973-0.1337 0.10371-0.090449 0.24873-0.1337 0.44827-0.1337 0.22232 0 0.32369-0.035675 0.4116-0.14485 0.08268-0.10268 0.15353-0.13043 0.24334-0.095312 0.1221 0.047745 0.12153 0.053785-0.01589 0.16659-0.13258 0.10883-0.13449 0.12213-0.02729 0.18946 0.0704 0.044212 0.15182 0.049163 0.20907 0.012714 0.29645-0.18871 0.39968 0.051203 0.15872 0.36888-0.18596 0.24517-0.29764 0.2577-0.29764 0.033403 0-0.09903-0.0463-0.12976-0.19552-0.12976-0.25279 0-0.3251 0.11721-0.10637 0.17242 0.22393 0.056515 0.21561 0.21586-0.0139 0.26643-0.10055 0.022156-0.22251 0.052751-0.27101 0.067989-0.06482 0.020366-0.08252-0.038381-0.06681-0.22177zm5.6758-0.013037c-0.02104-0.034228-0.0078-0.081129 0.02932-0.10422 0.03716-0.023095 0.06757 0.00491 0.06757 0.062233 0 0.11743-0.03989 0.13472-0.09688 0.041991zm-1.1463-0.076822c-0.07753-0.026876-0.11629-0.12541-0.12629-0.32107-0.0079-0.15526 0.0081-0.27319 0.03575-0.26206 0.45789 0.18462 0.73536 0.36971 0.73536 0.49052 0 0.1169-0.04058 0.1374-0.26648 0.13464-0.14656-0.00179-0.31681-0.020707-0.37834-0.042034zm-1.2518-0.33203c-0.02439-0.039685-4.65e-4 -0.12291 0.05321-0.18493 0.05366-0.062029 0.08493-0.14763 0.06949-0.19022-0.03894-0.1074 0.06576-0.15969 0.17892-0.089362 0.07918 0.049206 0.07607 0.078177-0.01979 0.1847-0.06254 0.069485-0.1137 0.1598-0.1137 0.20069 0 0.10848-0.11641 0.16327-0.16812 0.079125zm-0.29725-0.21449c0-0.055153 0.04487-0.13773 0.09972-0.1835 0.08111-0.067686 0.09972-0.064502 0.09972 0.017055 0 0.055153-0.04488 0.13773-0.09972 0.1835-0.0811 0.067686-0.09972 0.064502-0.09972-0.017055zm0.95983-0.096952c-0.07617-0.076594-0.08792-0.12254-0.0358-0.14001 0.12454-0.041745 0.27264 0.040627 0.27264 0.15164 0 0.13458-0.09613 0.12986-0.23684-0.01163zm-2.9543-0.053124c0-0.055153 0.04854-0.10028 0.10786-0.10028 0.08834 0 0.09288 0.01815 0.0251 0.10028-0.04552 0.055153-0.09406 0.10028-0.10786 0.10028-0.01381 0-0.0251-0.045125-0.0251-0.10028zm0.95001-0.10028c-0.01912-0.073538-0.07792-0.1337-0.13066-0.1337-0.05274 0-0.0774-0.030084-0.0548-0.066852 0.05348-0.08702 0.43685-0.084434 0.5651 0.003811 0.08215 0.056521 0.07629 0.065179-0.03324 0.049116-0.09473-0.013893-0.13907 0.023754-0.15421 0.13092-0.02633 0.18644-0.14535 0.19679-0.19218 0.016713zm0.77852 0.038997c0-0.058217 0.04737-0.10585 0.10526-0.10585 0.1174 0 0.09696 0.14392-0.02632 0.18524-0.04342 0.014554-0.07895-0.02117-0.07895-0.079387zm-1.4294-0.1727c0.0226-0.036769 0.0842-0.066852 0.13689-0.066852 0.05269 0 0.0958 0.030084 0.0958 0.066852 0 0.036769-0.0616 0.066852-0.13689 0.066852-0.07529 0-0.1184-0.030084-0.0958-0.066852z" fill="#363636" stroke-width=".066667"/>
</svg>
