<svg class="{{ with .class }}{{ . }} {{ end }} icon" width="24" height="24" enable-background="new 0 0 400 400" version="1.1" viewBox="0 0 24 24" xml:space="preserve" xmlns="http://www.w3.org/2000/svg" xmlns:cc="http://creativecommons.org/ns#" xmlns:dc="http://purl.org/dc/elements/1.1/" xmlns:rdf="http://www.w3.org/1999/02/22-rdf-syntax-ns#"><metadata><rdf:RDF><cc:Work rdf:about=""><dc:format>image/svg+xml</dc:format><dc:type rdf:resource="http://purl.org/dc/dcmitype/StillImage"/><dc:title/></cc:Work></rdf:RDF></metadata><path d="m8.9825 20.24c-2.4957-0.06425-3.9474-0.14331-4.9809-0.27124-1.3798-0.17081-2.0642-0.43734-2.6823-1.0447-0.93031-0.91398-1.1507-2.2723-1.1508-7.093-8.9e-5 -3.7507 0.14181-5.0797 0.65063-6.0938 0.37478-0.74698 0.76643-1.1488 1.3611-1.3963 0.57721-0.24029 1.6934-0.4211 3.1713-0.51373 1.7669-0.11073 9.4479-0.11077 12.837-6.81e-5 1.5452 0.050474 2.0608 0.10467 2.8458 0.29905 1.2631 0.31279 1.8371 0.75879 2.2842 1.7748 0.28986 0.65862 0.3983 1.2523 0.47663 2.6096 0.04816 0.83454 0.04892 5.9971 9.91e-4 6.7627-0.13599 2.1721-0.37611 2.9613-1.1311 3.7176-0.60503 0.60608-1.2795 0.84228-2.8298 0.99098-0.78416 0.07522-2.0404 0.14586-4.1575 0.23379-0.8887 0.03691-5.5507 0.05398-6.6952 0.02451zm1.0259-4.7604c0.85552-0.41492 5.2159-2.9402 5.6775-3.2881 0.2821-0.2126 0.25655-0.27793-0.23553-0.60218-1.2397-0.81692-5.6214-3.3083-5.8184-3.3083-0.07132 0-0.09238 0.10826-0.12186 0.6265-0.05603 0.98489-0.02276 6.5891 0.03972 6.6902 0.03465 0.05607 0.17285 0.02048 0.45859-0.1181z" opacity=".994" stroke="#000" stroke-width=".0018898"/></svg>
